<mxfile host="app.diagrams.net" agent="Mozilla/5.0 (Windows NT 10.0; Win64; x64) AppleWebKit/537.36 (KHTML, like Gecko) Chrome/139.0.0.0 Safari/537.36" version="28.1.1">
  <diagram name="第 1 页" id="HEAbph3sUWfqRwcuv7hl">
    <mxGraphModel dx="2078" dy="2595" grid="0" gridSize="10" guides="1" tooltips="1" connect="1" arrows="1" fold="1" page="0" pageScale="1" pageWidth="827" pageHeight="1169" math="0" shadow="0">
      <root>
        <mxCell id="0" />
        <mxCell id="1" parent="0" />
        <mxCell id="rphOo0Vk9jjCKU_iD-gh-1" value="" style="endArrow=none;dashed=1;html=1;rounded=0;" parent="1" edge="1">
          <mxGeometry width="50" height="50" relative="1" as="geometry">
            <mxPoint x="132" y="700" as="sourcePoint" />
            <mxPoint x="132" y="-1131" as="targetPoint" />
          </mxGeometry>
        </mxCell>
        <mxCell id="rphOo0Vk9jjCKU_iD-gh-2" value="" style="endArrow=none;dashed=1;html=1;rounded=0;" parent="1" edge="1">
          <mxGeometry width="50" height="50" relative="1" as="geometry">
            <mxPoint x="400.58000000000004" y="700" as="sourcePoint" />
            <mxPoint x="400.58000000000004" y="-1129" as="targetPoint" />
          </mxGeometry>
        </mxCell>
        <mxCell id="rphOo0Vk9jjCKU_iD-gh-3" value="&lt;font style=&quot;font-size: 24px;&quot;&gt;sampling-planning&lt;/font&gt;" style="text;html=1;align=center;verticalAlign=middle;whiteSpace=wrap;rounded=0;fontStyle=1;fontSize=29;" parent="1" vertex="1">
          <mxGeometry x="15" y="-1193" width="240" height="30" as="geometry" />
        </mxCell>
        <mxCell id="rphOo0Vk9jjCKU_iD-gh-4" value="&lt;font style=&quot;font-size: 24px;&quot;&gt;agronomic-service&lt;/font&gt;" style="text;html=1;align=center;verticalAlign=middle;whiteSpace=wrap;rounded=0;fontStyle=1;fontSize=29;" parent="1" vertex="1">
          <mxGeometry x="287" y="-1193" width="220" height="30" as="geometry" />
        </mxCell>
        <mxCell id="rphOo0Vk9jjCKU_iD-gh-7" value="" style="endArrow=none;dashed=1;html=1;rounded=0;" parent="1" edge="1">
          <mxGeometry width="50" height="50" relative="1" as="geometry">
            <mxPoint x="644" y="700" as="sourcePoint" />
            <mxPoint x="644" y="-1129" as="targetPoint" />
          </mxGeometry>
        </mxCell>
        <mxCell id="rphOo0Vk9jjCKU_iD-gh-8" value="&lt;font style=&quot;font-size: 24px;&quot;&gt;agriculture-pub&lt;/font&gt;" style="text;html=1;align=center;verticalAlign=middle;whiteSpace=wrap;rounded=0;fontStyle=1;fontSize=29;" parent="1" vertex="1">
          <mxGeometry x="549" y="-1193" width="190" height="30" as="geometry" />
        </mxCell>
        <mxCell id="rphOo0Vk9jjCKU_iD-gh-12" value="" style="endArrow=classic;html=1;rounded=0;" parent="1" edge="1">
          <mxGeometry width="50" height="50" relative="1" as="geometry">
            <mxPoint x="134" y="-1070" as="sourcePoint" />
            <mxPoint x="644" y="-1070" as="targetPoint" />
          </mxGeometry>
        </mxCell>
        <mxCell id="rphOo0Vk9jjCKU_iD-gh-13" value="&lt;font style=&quot;font-size: 18px;&quot;&gt;拉取智农云全部农场&lt;/font&gt;" style="text;html=1;align=center;verticalAlign=middle;whiteSpace=wrap;rounded=0;" parent="1" vertex="1">
          <mxGeometry x="193" y="-1106" width="175" height="30" as="geometry" />
        </mxCell>
        <mxCell id="rphOo0Vk9jjCKU_iD-gh-14" value="" style="endArrow=none;dashed=1;html=1;rounded=0;" parent="1" edge="1">
          <mxGeometry width="50" height="50" relative="1" as="geometry">
            <mxPoint x="-144" y="700" as="sourcePoint" />
            <mxPoint x="-144" y="-1132" as="targetPoint" />
          </mxGeometry>
        </mxCell>
        <mxCell id="rphOo0Vk9jjCKU_iD-gh-15" value="&lt;font style=&quot;font-size: 24px;&quot;&gt;laboratory&lt;/font&gt;" style="text;html=1;align=center;verticalAlign=middle;whiteSpace=wrap;rounded=0;fontStyle=1;fontSize=29;" parent="1" vertex="1">
          <mxGeometry x="-262" y="-1193" width="240" height="30" as="geometry" />
        </mxCell>
        <mxCell id="rphOo0Vk9jjCKU_iD-gh-17" value="" style="endArrow=classic;html=1;rounded=0;dashed=1;" parent="1" edge="1">
          <mxGeometry width="50" height="50" relative="1" as="geometry">
            <mxPoint x="644" y="-1047" as="sourcePoint" />
            <mxPoint x="140" y="-1047" as="targetPoint" />
          </mxGeometry>
        </mxCell>
        <mxCell id="rphOo0Vk9jjCKU_iD-gh-18" value="&lt;span style=&quot;font-size: 18px;&quot;&gt;返回&lt;/span&gt;" style="text;html=1;align=center;verticalAlign=middle;whiteSpace=wrap;rounded=0;" parent="1" vertex="1">
          <mxGeometry x="193" y="-1040" width="175" height="30" as="geometry" />
        </mxCell>
        <mxCell id="rphOo0Vk9jjCKU_iD-gh-19" value="" style="rounded=0;whiteSpace=wrap;html=1;" parent="1" vertex="1">
          <mxGeometry x="124" y="-1098" width="16" height="88" as="geometry" />
        </mxCell>
        <mxCell id="rphOo0Vk9jjCKU_iD-gh-20" value="" style="rounded=0;whiteSpace=wrap;html=1;" parent="1" vertex="1">
          <mxGeometry x="124" y="-968" width="16" height="462" as="geometry" />
        </mxCell>
        <mxCell id="rphOo0Vk9jjCKU_iD-gh-22" value="" style="endArrow=classic;html=1;rounded=0;" parent="1" edge="1">
          <mxGeometry width="50" height="50" relative="1" as="geometry">
            <mxPoint x="140" y="-951" as="sourcePoint" />
            <mxPoint x="140" y="-912" as="targetPoint" />
            <Array as="points">
              <mxPoint x="183" y="-951" />
              <mxPoint x="183" y="-912" />
            </Array>
          </mxGeometry>
        </mxCell>
        <mxCell id="rphOo0Vk9jjCKU_iD-gh-23" value="&lt;font style=&quot;font-size: 15px;&quot;&gt;选择要采样农场&lt;/font&gt;" style="text;html=1;align=center;verticalAlign=middle;whiteSpace=wrap;rounded=0;" parent="1" vertex="1">
          <mxGeometry x="130" y="-982" width="175" height="30" as="geometry" />
        </mxCell>
        <mxCell id="rphOo0Vk9jjCKU_iD-gh-24" value="" style="endArrow=classic;html=1;rounded=0;" parent="1" edge="1">
          <mxGeometry width="50" height="50" relative="1" as="geometry">
            <mxPoint x="140" y="-881" as="sourcePoint" />
            <mxPoint x="400" y="-881" as="targetPoint" />
          </mxGeometry>
        </mxCell>
        <mxCell id="rphOo0Vk9jjCKU_iD-gh-25" value="&lt;font&gt;拉取该农场至今所有长势&lt;/font&gt;" style="text;html=1;align=center;verticalAlign=middle;whiteSpace=wrap;rounded=0;fontSize=16;" parent="1" vertex="1">
          <mxGeometry x="183.5" y="-914" width="194" height="30" as="geometry" />
        </mxCell>
        <mxCell id="rphOo0Vk9jjCKU_iD-gh-26" value="" style="endArrow=classic;html=1;rounded=0;dashed=1;" parent="1" edge="1">
          <mxGeometry width="50" height="50" relative="1" as="geometry">
            <mxPoint x="400" y="-858" as="sourcePoint" />
            <mxPoint x="142" y="-858" as="targetPoint" />
          </mxGeometry>
        </mxCell>
        <mxCell id="rphOo0Vk9jjCKU_iD-gh-27" value="&lt;span style=&quot;font-size: 15px;&quot;&gt;返回&lt;/span&gt;" style="text;html=1;align=center;verticalAlign=middle;whiteSpace=wrap;rounded=0;" parent="1" vertex="1">
          <mxGeometry x="183.5" y="-856" width="175" height="30" as="geometry" />
        </mxCell>
        <mxCell id="rphOo0Vk9jjCKU_iD-gh-29" value="" style="endArrow=classic;html=1;rounded=0;" parent="1" edge="1">
          <mxGeometry width="50" height="50" relative="1" as="geometry">
            <mxPoint x="140" y="-785" as="sourcePoint" />
            <mxPoint x="140" y="-746" as="targetPoint" />
            <Array as="points">
              <mxPoint x="183" y="-785" />
              <mxPoint x="183" y="-746" />
            </Array>
          </mxGeometry>
        </mxCell>
        <mxCell id="rphOo0Vk9jjCKU_iD-gh-30" value="&lt;font style=&quot;font-size: 15px;&quot;&gt;选取最新的一个&lt;/font&gt;" style="text;html=1;align=center;verticalAlign=middle;whiteSpace=wrap;rounded=0;" parent="1" vertex="1">
          <mxGeometry x="130" y="-816" width="175" height="30" as="geometry" />
        </mxCell>
        <mxCell id="rphOo0Vk9jjCKU_iD-gh-31" value="" style="endArrow=classic;html=1;rounded=0;" parent="1" edge="1">
          <mxGeometry width="50" height="50" relative="1" as="geometry">
            <mxPoint x="140" y="-663" as="sourcePoint" />
            <mxPoint x="400" y="-663" as="targetPoint" />
          </mxGeometry>
        </mxCell>
        <mxCell id="rphOo0Vk9jjCKU_iD-gh-32" value="&lt;font&gt;拉取该长势的所有异常点&lt;/font&gt;" style="text;html=1;align=center;verticalAlign=middle;whiteSpace=wrap;rounded=0;fontSize=16;" parent="1" vertex="1">
          <mxGeometry x="183.5" y="-696" width="194" height="30" as="geometry" />
        </mxCell>
        <mxCell id="rphOo0Vk9jjCKU_iD-gh-33" value="" style="endArrow=classic;html=1;rounded=0;dashed=1;" parent="1" edge="1">
          <mxGeometry width="50" height="50" relative="1" as="geometry">
            <mxPoint x="400" y="-640" as="sourcePoint" />
            <mxPoint x="142" y="-640" as="targetPoint" />
          </mxGeometry>
        </mxCell>
        <mxCell id="rphOo0Vk9jjCKU_iD-gh-34" value="&lt;span style=&quot;font-size: 15px;&quot;&gt;返回&lt;/span&gt;" style="text;html=1;align=center;verticalAlign=middle;whiteSpace=wrap;rounded=0;" parent="1" vertex="1">
          <mxGeometry x="183.5" y="-639" width="175" height="30" as="geometry" />
        </mxCell>
        <mxCell id="rphOo0Vk9jjCKU_iD-gh-35" value="" style="endArrow=classic;html=1;rounded=0;" parent="1" edge="1">
          <mxGeometry width="50" height="50" relative="1" as="geometry">
            <mxPoint x="140" y="-565" as="sourcePoint" />
            <mxPoint x="140" y="-526" as="targetPoint" />
            <Array as="points">
              <mxPoint x="183" y="-565" />
              <mxPoint x="183" y="-526" />
            </Array>
          </mxGeometry>
        </mxCell>
        <mxCell id="rphOo0Vk9jjCKU_iD-gh-36" value="&lt;font style=&quot;font-size: 15px;&quot;&gt;完成并保存采样规划&lt;/font&gt;&lt;div&gt;&lt;font style=&quot;font-size: 15px;&quot;&gt;（未采样）&lt;/font&gt;&lt;/div&gt;" style="text;html=1;align=center;verticalAlign=middle;whiteSpace=wrap;rounded=0;" parent="1" vertex="1">
          <mxGeometry x="130" y="-597" width="175" height="30" as="geometry" />
        </mxCell>
        <mxCell id="rphOo0Vk9jjCKU_iD-gh-37" value="" style="rounded=0;whiteSpace=wrap;html=1;" parent="1" vertex="1">
          <mxGeometry x="124" y="-421" width="16" height="460" as="geometry" />
        </mxCell>
        <mxCell id="rphOo0Vk9jjCKU_iD-gh-38" value="" style="endArrow=classic;html=1;rounded=0;" parent="1" edge="1">
          <mxGeometry width="50" height="50" relative="1" as="geometry">
            <mxPoint x="140" y="-404" as="sourcePoint" />
            <mxPoint x="140" y="-365" as="targetPoint" />
            <Array as="points">
              <mxPoint x="183" y="-404" />
              <mxPoint x="183" y="-365" />
            </Array>
          </mxGeometry>
        </mxCell>
        <mxCell id="rphOo0Vk9jjCKU_iD-gh-39" value="&lt;span&gt;去采样&lt;/span&gt;" style="text;html=1;align=center;verticalAlign=middle;whiteSpace=wrap;rounded=0;fontStyle=1;fontSize=15;" parent="1" vertex="1">
          <mxGeometry x="102" y="-480" width="175" height="30" as="geometry" />
        </mxCell>
        <mxCell id="rphOo0Vk9jjCKU_iD-gh-40" value="&lt;span&gt;建采样计划&lt;/span&gt;" style="text;html=1;align=center;verticalAlign=middle;whiteSpace=wrap;rounded=0;fontStyle=1;fontSize=15;" parent="1" vertex="1">
          <mxGeometry x="102" y="-1136" width="175" height="30" as="geometry" />
        </mxCell>
        <mxCell id="rphOo0Vk9jjCKU_iD-gh-41" value="&lt;span style=&quot;font-size: 15px;&quot;&gt;删除采样点&lt;/span&gt;" style="text;html=1;align=center;verticalAlign=middle;whiteSpace=wrap;rounded=0;" parent="1" vertex="1">
          <mxGeometry x="130" y="-436" width="175" height="30" as="geometry" />
        </mxCell>
        <mxCell id="rphOo0Vk9jjCKU_iD-gh-42" value="" style="endArrow=classic;html=1;rounded=0;" parent="1" edge="1">
          <mxGeometry width="50" height="50" relative="1" as="geometry">
            <mxPoint x="140" y="-309" as="sourcePoint" />
            <mxPoint x="140" y="-270" as="targetPoint" />
            <Array as="points">
              <mxPoint x="183" y="-309" />
              <mxPoint x="183" y="-270" />
            </Array>
          </mxGeometry>
        </mxCell>
        <mxCell id="rphOo0Vk9jjCKU_iD-gh-43" value="&lt;span style=&quot;font-size: 15px;&quot;&gt;移动采样点&lt;/span&gt;" style="text;html=1;align=center;verticalAlign=middle;whiteSpace=wrap;rounded=0;" parent="1" vertex="1">
          <mxGeometry x="130" y="-341" width="175" height="30" as="geometry" />
        </mxCell>
        <mxCell id="rphOo0Vk9jjCKU_iD-gh-44" value="" style="endArrow=classic;html=1;rounded=0;" parent="1" edge="1">
          <mxGeometry width="50" height="50" relative="1" as="geometry">
            <mxPoint x="140" y="-224" as="sourcePoint" />
            <mxPoint x="140" y="-185" as="targetPoint" />
            <Array as="points">
              <mxPoint x="183" y="-224" />
              <mxPoint x="183" y="-185" />
            </Array>
          </mxGeometry>
        </mxCell>
        <mxCell id="rphOo0Vk9jjCKU_iD-gh-45" value="&lt;span style=&quot;font-size: 15px;&quot;&gt;标记采样点完成采样&lt;/span&gt;" style="text;html=1;align=center;verticalAlign=middle;whiteSpace=wrap;rounded=0;" parent="1" vertex="1">
          <mxGeometry x="130" y="-256" width="175" height="30" as="geometry" />
        </mxCell>
        <mxCell id="rphOo0Vk9jjCKU_iD-gh-46" value="" style="endArrow=classic;html=1;rounded=0;" parent="1" edge="1">
          <mxGeometry width="50" height="50" relative="1" as="geometry">
            <mxPoint x="140" y="-126" as="sourcePoint" />
            <mxPoint x="140" y="-87" as="targetPoint" />
            <Array as="points">
              <mxPoint x="183" y="-126" />
              <mxPoint x="183" y="-87" />
            </Array>
          </mxGeometry>
        </mxCell>
        <mxCell id="rphOo0Vk9jjCKU_iD-gh-47" value="&lt;span style=&quot;font-size: 15px;&quot;&gt;完成采样(&lt;/span&gt;&lt;span style=&quot;font-size: 15px; background-color: transparent; color: light-dark(rgb(0, 0, 0), rgb(255, 255, 255));&quot;&gt;已采样)&lt;/span&gt;" style="text;html=1;align=center;verticalAlign=middle;whiteSpace=wrap;rounded=0;" parent="1" vertex="1">
          <mxGeometry x="130" y="-158" width="175" height="30" as="geometry" />
        </mxCell>
        <mxCell id="rphOo0Vk9jjCKU_iD-gh-48" value="" style="endArrow=classic;html=1;rounded=0;" parent="1" edge="1">
          <mxGeometry width="50" height="50" relative="1" as="geometry">
            <mxPoint x="140" y="-28" as="sourcePoint" />
            <mxPoint x="140" y="11" as="targetPoint" />
            <Array as="points">
              <mxPoint x="183" y="-28" />
              <mxPoint x="183" y="11" />
            </Array>
          </mxGeometry>
        </mxCell>
        <mxCell id="rphOo0Vk9jjCKU_iD-gh-49" value="&lt;span style=&quot;font-size: 15px;&quot;&gt;绑定二维码&lt;/span&gt;" style="text;html=1;align=center;verticalAlign=middle;whiteSpace=wrap;rounded=0;" parent="1" vertex="1">
          <mxGeometry x="130" y="-60" width="175" height="30" as="geometry" />
        </mxCell>
        <mxCell id="rphOo0Vk9jjCKU_iD-gh-50" value="" style="rounded=0;whiteSpace=wrap;html=1;" parent="1" vertex="1">
          <mxGeometry x="-153" y="98" width="16" height="304" as="geometry" />
        </mxCell>
        <mxCell id="rphOo0Vk9jjCKU_iD-gh-51" value="&lt;span&gt;样品检测&lt;/span&gt;" style="text;html=1;align=center;verticalAlign=middle;whiteSpace=wrap;rounded=0;fontStyle=1;fontSize=15;" parent="1" vertex="1">
          <mxGeometry x="-175" y="39" width="175" height="30" as="geometry" />
        </mxCell>
        <mxCell id="rphOo0Vk9jjCKU_iD-gh-52" value="" style="endArrow=classic;html=1;rounded=0;" parent="1" edge="1">
          <mxGeometry width="50" height="50" relative="1" as="geometry">
            <mxPoint x="-136" y="147" as="sourcePoint" />
            <mxPoint x="129" y="147" as="targetPoint" />
          </mxGeometry>
        </mxCell>
        <mxCell id="rphOo0Vk9jjCKU_iD-gh-53" value="&lt;font&gt;根据二维码获取采样规划&lt;/font&gt;" style="text;html=1;align=center;verticalAlign=middle;whiteSpace=wrap;rounded=0;fontSize=16;" parent="1" vertex="1">
          <mxGeometry x="-92.5" y="114" width="194" height="30" as="geometry" />
        </mxCell>
        <mxCell id="rphOo0Vk9jjCKU_iD-gh-54" value="" style="endArrow=classic;html=1;rounded=0;dashed=1;" parent="1" edge="1">
          <mxGeometry width="50" height="50" relative="1" as="geometry">
            <mxPoint x="129" y="170" as="sourcePoint" />
            <mxPoint x="-134" y="170" as="targetPoint" />
          </mxGeometry>
        </mxCell>
        <mxCell id="rphOo0Vk9jjCKU_iD-gh-55" value="&lt;span style=&quot;font-size: 15px;&quot;&gt;返回&lt;/span&gt;" style="text;html=1;align=center;verticalAlign=middle;whiteSpace=wrap;rounded=0;" parent="1" vertex="1">
          <mxGeometry x="-92.5" y="171" width="175" height="30" as="geometry" />
        </mxCell>
        <mxCell id="rphOo0Vk9jjCKU_iD-gh-56" value="" style="endArrow=classic;html=1;rounded=0;" parent="1" edge="1">
          <mxGeometry width="50" height="50" relative="1" as="geometry">
            <mxPoint x="-137" y="323" as="sourcePoint" />
            <mxPoint x="-137" y="362" as="targetPoint" />
            <Array as="points">
              <mxPoint x="-94" y="323" />
              <mxPoint x="-94" y="362" />
            </Array>
          </mxGeometry>
        </mxCell>
        <mxCell id="rphOo0Vk9jjCKU_iD-gh-57" value="&lt;span style=&quot;font-size: 15px;&quot;&gt;审核、导出检测报告&lt;/span&gt;" style="text;html=1;align=center;verticalAlign=middle;whiteSpace=wrap;rounded=0;" parent="1" vertex="1">
          <mxGeometry x="-141" y="292" width="175" height="30" as="geometry" />
        </mxCell>
        <mxCell id="rphOo0Vk9jjCKU_iD-gh-60" value="" style="endArrow=classic;html=1;rounded=0;" parent="1" edge="1">
          <mxGeometry width="50" height="50" relative="1" as="geometry">
            <mxPoint x="-137" y="235" as="sourcePoint" />
            <mxPoint x="-137" y="274" as="targetPoint" />
            <Array as="points">
              <mxPoint x="-94" y="235" />
              <mxPoint x="-94" y="274" />
            </Array>
          </mxGeometry>
        </mxCell>
        <mxCell id="rphOo0Vk9jjCKU_iD-gh-61" value="&lt;span style=&quot;font-size: 15px;&quot;&gt;检测、&lt;/span&gt;&lt;span style=&quot;font-size: 15px;&quot;&gt;导入检测结果&lt;/span&gt;" style="text;html=1;align=center;verticalAlign=middle;whiteSpace=wrap;rounded=0;" parent="1" vertex="1">
          <mxGeometry x="-141" y="201" width="175" height="30" as="geometry" />
        </mxCell>
        <mxCell id="rphOo0Vk9jjCKU_iD-gh-62" value="&lt;b&gt;&lt;font style=&quot;font-size: 40px;&quot;&gt;植株采集检测时序图&lt;/font&gt;&lt;/b&gt;" style="text;html=1;align=center;verticalAlign=middle;whiteSpace=wrap;rounded=0;" parent="1" vertex="1">
          <mxGeometry x="82.5" y="-1324" width="381.75" height="131" as="geometry" />
        </mxCell>
        <mxCell id="TVuM8KWAai7T77vJvqF7-1" value="智农宝APP" style="rounded=1;whiteSpace=wrap;html=1;fontSize=21;fontStyle=0;fillColor=#dae8fc;strokeColor=#6c8ebf;" vertex="1" parent="1">
          <mxGeometry x="1241" y="-1379" width="178" height="78" as="geometry" />
        </mxCell>
        <mxCell id="TVuM8KWAai7T77vJvqF7-2" value="实验室系统" style="rounded=1;whiteSpace=wrap;html=1;fontSize=21;fontStyle=0;fillColor=#dae8fc;strokeColor=#6c8ebf;" vertex="1" parent="1">
          <mxGeometry x="1241" y="-1121" width="178" height="78" as="geometry" />
        </mxCell>
        <mxCell id="TVuM8KWAai7T77vJvqF7-7" style="edgeStyle=orthogonalEdgeStyle;rounded=0;orthogonalLoop=1;jettySize=auto;html=1;exitX=1;exitY=0.5;exitDx=0;exitDy=0;entryX=0;entryY=0.5;entryDx=0;entryDy=0;" edge="1" parent="1" source="TVuM8KWAai7T77vJvqF7-4" target="TVuM8KWAai7T77vJvqF7-6">
          <mxGeometry relative="1" as="geometry" />
        </mxCell>
        <mxCell id="TVuM8KWAai7T77vJvqF7-4" value="采样规划" style="rounded=1;whiteSpace=wrap;html=1;fontSize=21;fontStyle=0;fillColor=#d5e8d4;strokeColor=#82b366;" vertex="1" parent="1">
          <mxGeometry x="1511" y="-1379" width="178" height="78" as="geometry" />
        </mxCell>
        <mxCell id="TVuM8KWAai7T77vJvqF7-11" style="edgeStyle=orthogonalEdgeStyle;rounded=0;orthogonalLoop=1;jettySize=auto;html=1;exitX=1;exitY=0.5;exitDx=0;exitDy=0;" edge="1" parent="1" source="TVuM8KWAai7T77vJvqF7-6">
          <mxGeometry relative="1" as="geometry">
            <mxPoint x="2045.5294117647063" y="-1339.7058823529412" as="targetPoint" />
          </mxGeometry>
        </mxCell>
        <mxCell id="TVuM8KWAai7T77vJvqF7-6" value="采样" style="rounded=1;whiteSpace=wrap;html=1;fontSize=21;fontStyle=0;fillColor=#d5e8d4;strokeColor=#82b366;" vertex="1" parent="1">
          <mxGeometry x="1791" y="-1379" width="178" height="78" as="geometry" />
        </mxCell>
        <mxCell id="TVuM8KWAai7T77vJvqF7-8" value="&lt;span style=&quot;font-size: 19px;&quot;&gt;待采样&lt;/span&gt;" style="text;html=1;align=center;verticalAlign=middle;whiteSpace=wrap;rounded=0;strokeWidth=5;" vertex="1" parent="1">
          <mxGeometry x="1570" y="-1417" width="60" height="30" as="geometry" />
        </mxCell>
        <mxCell id="TVuM8KWAai7T77vJvqF7-9" value="&lt;span style=&quot;font-size: 19px;&quot;&gt;待登记&lt;/span&gt;" style="text;html=1;align=center;verticalAlign=middle;whiteSpace=wrap;rounded=0;strokeWidth=5;" vertex="1" parent="1">
          <mxGeometry x="1845" y="-1417" width="60" height="30" as="geometry" />
        </mxCell>
        <mxCell id="TVuM8KWAai7T77vJvqF7-15" style="edgeStyle=orthogonalEdgeStyle;rounded=0;orthogonalLoop=1;jettySize=auto;html=1;exitX=0.5;exitY=1;exitDx=0;exitDy=0;entryX=0.5;entryY=0;entryDx=0;entryDy=0;" edge="1" parent="1" source="TVuM8KWAai7T77vJvqF7-12" target="TVuM8KWAai7T77vJvqF7-14">
          <mxGeometry relative="1" as="geometry" />
        </mxCell>
        <mxCell id="TVuM8KWAai7T77vJvqF7-12" value="采样结果（采样点信息）&lt;br&gt;采样物料（快递邮寄）" style="rounded=1;whiteSpace=wrap;html=1;fontSize=21;fontStyle=0;fillColor=#d5e8d4;strokeColor=#82b366;" vertex="1" parent="1">
          <mxGeometry x="2048" y="-1379" width="256" height="78" as="geometry" />
        </mxCell>
        <mxCell id="TVuM8KWAai7T77vJvqF7-13" value="&lt;span style=&quot;font-size: 19px;&quot;&gt;待录入&lt;/span&gt;" style="text;html=1;align=center;verticalAlign=middle;whiteSpace=wrap;rounded=0;strokeWidth=5;" vertex="1" parent="1">
          <mxGeometry x="2319" y="-1354" width="60" height="30" as="geometry" />
        </mxCell>
        <mxCell id="TVuM8KWAai7T77vJvqF7-18" style="edgeStyle=orthogonalEdgeStyle;rounded=0;orthogonalLoop=1;jettySize=auto;html=1;exitX=0;exitY=0.5;exitDx=0;exitDy=0;" edge="1" parent="1" source="TVuM8KWAai7T77vJvqF7-14" target="TVuM8KWAai7T77vJvqF7-16">
          <mxGeometry relative="1" as="geometry" />
        </mxCell>
        <mxCell id="TVuM8KWAai7T77vJvqF7-14" value="样品录入" style="rounded=1;whiteSpace=wrap;html=1;fontSize=25;fontStyle=0;fillColor=#d5e8d4;strokeColor=#82b366;" vertex="1" parent="1">
          <mxGeometry x="2080" y="-1121" width="192" height="78" as="geometry" />
        </mxCell>
        <mxCell id="TVuM8KWAai7T77vJvqF7-20" style="edgeStyle=orthogonalEdgeStyle;rounded=0;orthogonalLoop=1;jettySize=auto;html=1;exitX=0;exitY=0.5;exitDx=0;exitDy=0;entryX=1;entryY=0.5;entryDx=0;entryDy=0;" edge="1" parent="1" source="TVuM8KWAai7T77vJvqF7-16" target="TVuM8KWAai7T77vJvqF7-19">
          <mxGeometry relative="1" as="geometry" />
        </mxCell>
        <mxCell id="TVuM8KWAai7T77vJvqF7-16" value="样品检测" style="rounded=1;whiteSpace=wrap;html=1;fontSize=25;fontStyle=0;fillColor=#d5e8d4;strokeColor=#82b366;" vertex="1" parent="1">
          <mxGeometry x="1793" y="-1121" width="192" height="78" as="geometry" />
        </mxCell>
        <mxCell id="TVuM8KWAai7T77vJvqF7-17" value="" style="endArrow=none;dashed=1;html=1;rounded=0;" edge="1" parent="1">
          <mxGeometry width="50" height="50" relative="1" as="geometry">
            <mxPoint x="1188" y="-1214" as="sourcePoint" />
            <mxPoint x="2391" y="-1214" as="targetPoint" />
          </mxGeometry>
        </mxCell>
        <mxCell id="TVuM8KWAai7T77vJvqF7-25" style="edgeStyle=orthogonalEdgeStyle;rounded=0;orthogonalLoop=1;jettySize=auto;html=1;exitX=0.5;exitY=1;exitDx=0;exitDy=0;" edge="1" parent="1" source="TVuM8KWAai7T77vJvqF7-19">
          <mxGeometry relative="1" as="geometry">
            <mxPoint x="1606.7058823529414" y="-879.7058823529412" as="targetPoint" />
          </mxGeometry>
        </mxCell>
        <mxCell id="TVuM8KWAai7T77vJvqF7-19" value="样品审核" style="rounded=1;whiteSpace=wrap;html=1;fontSize=25;fontStyle=0;fillColor=#d5e8d4;strokeColor=#82b366;" vertex="1" parent="1">
          <mxGeometry x="1511" y="-1121" width="192" height="78" as="geometry" />
        </mxCell>
        <mxCell id="TVuM8KWAai7T77vJvqF7-21" value="" style="endArrow=none;dashed=1;html=1;rounded=0;" edge="1" parent="1">
          <mxGeometry width="50" height="50" relative="1" as="geometry">
            <mxPoint x="1187" y="-952" as="sourcePoint" />
            <mxPoint x="2390" y="-952" as="targetPoint" />
          </mxGeometry>
        </mxCell>
        <mxCell id="TVuM8KWAai7T77vJvqF7-22" value="&lt;span style=&quot;font-size: 19px;&quot;&gt;待检测&lt;/span&gt;" style="text;html=1;align=center;verticalAlign=middle;whiteSpace=wrap;rounded=0;strokeWidth=5;" vertex="1" parent="1">
          <mxGeometry x="2285" y="-1098" width="60" height="30" as="geometry" />
        </mxCell>
        <mxCell id="TVuM8KWAai7T77vJvqF7-23" value="&lt;span style=&quot;font-size: 19px;&quot;&gt;待审核&lt;/span&gt;" style="text;html=1;align=center;verticalAlign=middle;whiteSpace=wrap;rounded=0;strokeWidth=5;" vertex="1" parent="1">
          <mxGeometry x="1850" y="-1151" width="60" height="30" as="geometry" />
        </mxCell>
        <mxCell id="TVuM8KWAai7T77vJvqF7-24" value="&lt;span style=&quot;font-size: 19px;&quot;&gt;待同步&lt;/span&gt;" style="text;html=1;align=center;verticalAlign=middle;whiteSpace=wrap;rounded=0;strokeWidth=5;" vertex="1" parent="1">
          <mxGeometry x="1577" y="-1159" width="60" height="30" as="geometry" />
        </mxCell>
        <mxCell id="TVuM8KWAai7T77vJvqF7-26" value="检测结果/报告" style="rounded=1;whiteSpace=wrap;html=1;fontSize=25;fontStyle=0;fillColor=#d5e8d4;strokeColor=#82b366;" vertex="1" parent="1">
          <mxGeometry x="1511" y="-877" width="192" height="78" as="geometry" />
        </mxCell>
      </root>
    </mxGraphModel>
  </diagram>
</mxfile>
